<svg width="247" height="29" viewBox="0 0 247 29" fill="none" xmlns="http://www.w3.org/2000/svg">
<path d="M59.4148 23.2557C58.0682 23.2557 56.9091 22.983 55.9375 22.4375C54.9716 21.8864 54.2273 21.108 53.7045 20.1023C53.1818 19.0909 52.9205 17.8949 52.9205 16.5142C52.9205 15.1676 53.1818 13.9858 53.7045 12.9688C54.2273 11.9517 54.9631 11.1591 55.9119 10.5909C56.8665 10.0227 57.9858 9.73864 59.2699 9.73864C60.1335 9.73864 60.9375 9.87784 61.6818 10.1562C62.4318 10.429 63.0852 10.8409 63.642 11.392C64.2045 11.9432 64.642 12.6364 64.9545 13.4716C65.267 14.3011 65.4233 15.2727 65.4233 16.3864V17.3835H54.3693V15.1335H62.0057C62.0057 14.6108 61.892 14.1477 61.6648 13.7443C61.4375 13.3409 61.1222 13.0256 60.7188 12.7983C60.321 12.5653 59.858 12.4489 59.3295 12.4489C58.7784 12.4489 58.2898 12.5767 57.8636 12.8324C57.4432 13.0824 57.1136 13.4205 56.875 13.8466C56.6364 14.267 56.5142 14.7358 56.5085 15.2528V17.392C56.5085 18.0398 56.6278 18.5994 56.8665 19.071C57.1108 19.5426 57.4545 19.9062 57.8977 20.1619C58.3409 20.4176 58.8665 20.5455 59.4744 20.5455C59.8778 20.5455 60.2472 20.4886 60.5824 20.375C60.9176 20.2614 61.2045 20.0909 61.4432 19.8636C61.6818 19.6364 61.8636 19.358 61.9886 19.0284L65.3466 19.25C65.1761 20.0568 64.8267 20.7614 64.2983 21.3636C63.7756 21.9602 63.0994 22.4261 62.2699 22.7614C61.446 23.0909 60.4943 23.2557 59.4148 23.2557ZM79.6456 9.90909L75.0689 23H70.978L66.4013 9.90909H70.2365L72.9553 19.2756H73.0916L75.8018 9.90909H79.6456ZM86.9964 23.2557C85.6726 23.2557 84.5277 22.9744 83.5618 22.4119C82.6016 21.8437 81.8601 21.054 81.3374 20.0426C80.8146 19.0256 80.5533 17.8466 80.5533 16.5057C80.5533 15.1534 80.8146 13.9716 81.3374 12.9602C81.8601 11.9432 82.6016 11.1534 83.5618 10.5909C84.5277 10.0227 85.6726 9.73864 86.9964 9.73864C88.3203 9.73864 89.4624 10.0227 90.4226 10.5909C91.3885 11.1534 92.1328 11.9432 92.6555 12.9602C93.1783 13.9716 93.4396 15.1534 93.4396 16.5057C93.4396 17.8466 93.1783 19.0256 92.6555 20.0426C92.1328 21.054 91.3885 21.8437 90.4226 22.4119C89.4624 22.9744 88.3203 23.2557 86.9964 23.2557ZM87.0135 20.4432C87.6158 20.4432 88.1186 20.2727 88.522 19.9318C88.9254 19.5852 89.2294 19.1136 89.4339 18.517C89.6442 17.9205 89.7493 17.2415 89.7493 16.4801C89.7493 15.7188 89.6442 15.0398 89.4339 14.4432C89.2294 13.8466 88.9254 13.375 88.522 13.0284C88.1186 12.6818 87.6158 12.5085 87.0135 12.5085C86.4055 12.5085 85.8942 12.6818 85.4794 13.0284C85.0703 13.375 84.7607 13.8466 84.5504 14.4432C84.3459 15.0398 84.2436 15.7188 84.2436 16.4801C84.2436 17.2415 84.3459 17.9205 84.5504 18.517C84.7607 19.1136 85.0703 19.5852 85.4794 19.9318C85.8942 20.2727 86.4055 20.4432 87.0135 20.4432ZM102.763 9.90909V12.6364H94.88V9.90909H102.763ZM96.6697 6.77273H100.3V18.9773C100.3 19.3125 100.352 19.5739 100.454 19.7614C100.556 19.9432 100.698 20.071 100.88 20.1449C101.067 20.2187 101.283 20.2557 101.528 20.2557C101.698 20.2557 101.869 20.2415 102.039 20.2131C102.21 20.179 102.34 20.1534 102.431 20.1364L103.002 22.8381C102.82 22.8949 102.565 22.9602 102.235 23.0341C101.906 23.1136 101.505 23.1619 101.033 23.179C100.158 23.2131 99.3913 23.0966 98.7322 22.8295C98.0788 22.5625 97.5703 22.1477 97.2067 21.5852C96.843 21.0227 96.6641 20.3125 96.6697 19.4545V6.77273ZM105.129 23V9.90909H108.759V23H105.129ZM106.952 8.22159C106.413 8.22159 105.95 8.04261 105.563 7.68466C105.183 7.32102 104.992 6.88636 104.992 6.38068C104.992 5.88068 105.183 5.4517 105.563 5.09375C105.95 4.73011 106.413 4.54829 106.952 4.54829C107.492 4.54829 107.952 4.73011 108.333 5.09375C108.719 5.4517 108.913 5.88068 108.913 6.38068C108.913 6.88636 108.719 7.32102 108.333 7.68466C107.952 8.04261 107.492 8.22159 106.952 8.22159ZM115.298 15.4318V23H111.668V9.90909H115.128V12.2188H115.281C115.571 11.4574 116.057 10.8551 116.739 10.4119C117.42 9.96307 118.247 9.73864 119.219 9.73864C120.128 9.73864 120.92 9.9375 121.597 10.3352C122.273 10.733 122.798 11.3011 123.173 12.0398C123.548 12.7727 123.736 13.6477 123.736 14.6648V23H120.105V15.3125C120.111 14.5114 119.906 13.8864 119.491 13.4375C119.077 12.983 118.506 12.7557 117.778 12.7557C117.29 12.7557 116.858 12.8608 116.483 13.071C116.114 13.2812 115.824 13.5881 115.614 13.9915C115.409 14.3892 115.304 14.8693 115.298 15.4318ZM132.495 28.1818C131.319 28.1818 130.31 28.0199 129.469 27.696C128.634 27.3778 127.969 26.9432 127.475 26.392C126.981 25.8409 126.66 25.2216 126.512 24.5341L129.87 24.0824C129.972 24.3438 130.134 24.5881 130.356 24.8153C130.577 25.0426 130.87 25.2244 131.234 25.3608C131.603 25.5028 132.052 25.5739 132.58 25.5739C133.37 25.5739 134.021 25.3807 134.532 24.9943C135.049 24.6136 135.308 23.9744 135.308 23.0767V20.6818H135.154C134.995 21.0455 134.756 21.3892 134.438 21.7131C134.12 22.0369 133.711 22.3011 133.211 22.5057C132.711 22.7102 132.114 22.8125 131.421 22.8125C130.438 22.8125 129.543 22.5852 128.737 22.1307C127.935 21.6705 127.296 20.9687 126.819 20.0256C126.347 19.0767 126.112 17.8778 126.112 16.429C126.112 14.946 126.353 13.7074 126.836 12.7131C127.319 11.7187 127.961 10.9744 128.762 10.4801C129.569 9.9858 130.452 9.73864 131.413 9.73864C132.146 9.73864 132.759 9.86364 133.254 10.1136C133.748 10.358 134.146 10.6648 134.447 11.0341C134.754 11.3977 134.989 11.7557 135.154 12.108H135.29V9.90909H138.896V23.1278C138.896 24.2415 138.623 25.1733 138.077 25.9233C137.532 26.6733 136.776 27.2358 135.81 27.6108C134.85 27.9915 133.745 28.1818 132.495 28.1818ZM132.572 20.0852C133.157 20.0852 133.651 19.9403 134.055 19.6506C134.464 19.3551 134.776 18.9347 134.992 18.3892C135.214 17.8381 135.325 17.179 135.325 16.4119C135.325 15.6449 135.217 14.9801 135.001 14.4176C134.785 13.8494 134.472 13.4091 134.063 13.0966C133.654 12.7841 133.157 12.6278 132.572 12.6278C131.975 12.6278 131.472 12.7898 131.063 13.1136C130.654 13.4318 130.344 13.875 130.134 14.4432C129.924 15.0114 129.819 15.6676 129.819 16.4119C129.819 17.1676 129.924 17.821 130.134 18.3722C130.35 18.9176 130.66 19.3409 131.063 19.642C131.472 19.9375 131.975 20.0852 132.572 20.0852ZM147.339 27.9091V9.90909H150.919V12.108H151.081C151.24 11.7557 151.47 11.3977 151.771 11.0341C152.078 10.6648 152.476 10.358 152.964 10.1136C153.459 9.86364 154.072 9.73864 154.805 9.73864C155.76 9.73864 156.641 9.98864 157.447 10.4886C158.254 10.983 158.899 11.7301 159.382 12.7301C159.865 13.7244 160.107 14.9716 160.107 16.4716C160.107 17.9318 159.871 19.1648 159.399 20.1705C158.933 21.1705 158.297 21.929 157.49 22.446C156.689 22.9574 155.791 23.2131 154.797 23.2131C154.092 23.2131 153.493 23.0966 152.999 22.8636C152.51 22.6307 152.109 22.3381 151.797 21.9858C151.484 21.6278 151.246 21.267 151.081 20.9034H150.97V27.9091H147.339ZM150.893 16.4545C150.893 17.233 151.001 17.9119 151.217 18.4915C151.433 19.071 151.746 19.5227 152.155 19.8466C152.564 20.1648 153.061 20.3239 153.646 20.3239C154.237 20.3239 154.737 20.1619 155.146 19.8381C155.555 19.5085 155.865 19.054 156.075 18.4744C156.291 17.8892 156.399 17.2159 156.399 16.4545C156.399 15.6989 156.294 15.0341 156.084 14.4602C155.874 13.8864 155.564 13.4375 155.155 13.1136C154.746 12.7898 154.243 12.6278 153.646 12.6278C153.055 12.6278 152.555 12.7841 152.146 13.0966C151.743 13.4091 151.433 13.8523 151.217 14.4261C151.001 15 150.893 15.6761 150.893 16.4545ZM166.158 5.54545V23H162.527V5.54545H166.158ZM172.799 23.2472C171.964 23.2472 171.219 23.1023 170.566 22.8125C169.913 22.517 169.396 22.0824 169.015 21.5085C168.64 20.929 168.452 20.2074 168.452 19.3438C168.452 18.6165 168.586 18.0057 168.853 17.5114C169.12 17.017 169.484 16.6193 169.944 16.3182C170.404 16.017 170.927 15.7898 171.512 15.6364C172.103 15.483 172.722 15.375 173.37 15.3125C174.131 15.233 174.745 15.1591 175.211 15.0909C175.677 15.017 176.015 14.9091 176.225 14.767C176.435 14.625 176.54 14.4148 176.54 14.1364V14.0852C176.54 13.5455 176.37 13.1278 176.029 12.8324C175.694 12.5369 175.217 12.3892 174.597 12.3892C173.944 12.3892 173.424 12.5341 173.038 12.8239C172.651 13.108 172.396 13.4659 172.271 13.8977L168.913 13.625C169.083 12.8295 169.418 12.142 169.918 11.5625C170.418 10.9773 171.063 10.5284 171.853 10.2159C172.648 9.89773 173.569 9.73864 174.614 9.73864C175.342 9.73864 176.038 9.82386 176.702 9.99432C177.373 10.1648 177.967 10.429 178.484 10.7869C179.006 11.1449 179.418 11.6051 179.719 12.1676C180.021 12.7244 180.171 13.392 180.171 14.1705V23H176.728V21.1847H176.626C176.415 21.5938 176.134 21.9545 175.782 22.267C175.43 22.5739 175.006 22.8153 174.512 22.9915C174.018 23.1619 173.447 23.2472 172.799 23.2472ZM173.839 20.7415C174.373 20.7415 174.844 20.6364 175.254 20.4261C175.663 20.2102 175.984 19.9205 176.217 19.5568C176.45 19.1932 176.566 18.7812 176.566 18.321V16.9318C176.452 17.0057 176.296 17.0739 176.097 17.1364C175.904 17.1932 175.685 17.2472 175.441 17.2983C175.197 17.3437 174.952 17.3864 174.708 17.4261C174.464 17.4602 174.242 17.4915 174.043 17.5199C173.617 17.5824 173.245 17.6818 172.927 17.8182C172.609 17.9545 172.362 18.1392 172.185 18.3722C172.009 18.5994 171.921 18.8835 171.921 19.2244C171.921 19.7188 172.1 20.0966 172.458 20.358C172.822 20.6136 173.282 20.7415 173.839 20.7415ZM189.951 9.90909V12.6364H182.067V9.90909H189.951ZM183.857 6.77273H187.488V18.9773C187.488 19.3125 187.539 19.5739 187.641 19.7614C187.744 19.9432 187.886 20.071 188.067 20.1449C188.255 20.2187 188.471 20.2557 188.715 20.2557C188.886 20.2557 189.056 20.2415 189.227 20.2131C189.397 20.179 189.528 20.1534 189.619 20.1364L190.19 22.8381C190.008 22.8949 189.752 22.9602 189.423 23.0341C189.093 23.1136 188.692 23.1619 188.221 23.179C187.346 23.2131 186.579 23.0966 185.92 22.8295C185.266 22.5625 184.758 22.1477 184.394 21.5852C184.031 21.0227 183.852 20.3125 183.857 19.4545V6.77273ZM199.356 9.90909V12.6364H191.276V9.90909H199.356ZM193.126 23V8.96307C193.126 8.0142 193.31 7.22727 193.68 6.60227C194.055 5.97727 194.566 5.50852 195.214 5.19602C195.862 4.88352 196.597 4.72727 197.421 4.72727C197.978 4.72727 198.487 4.76989 198.947 4.85511C199.413 4.94034 199.759 5.01705 199.987 5.08523L199.339 7.8125C199.197 7.76705 199.021 7.72443 198.81 7.68466C198.606 7.64489 198.396 7.625 198.18 7.625C197.646 7.625 197.273 7.75 197.063 8C196.853 8.24432 196.748 8.58807 196.748 9.03125V23H193.126ZM207.02 23.2557C205.696 23.2557 204.551 22.9744 203.585 22.4119C202.625 21.8437 201.884 21.054 201.361 20.0426C200.838 19.0256 200.577 17.8466 200.577 16.5057C200.577 15.1534 200.838 13.9716 201.361 12.9602C201.884 11.9432 202.625 11.1534 203.585 10.5909C204.551 10.0227 205.696 9.73864 207.02 9.73864C208.344 9.73864 209.486 10.0227 210.446 10.5909C211.412 11.1534 212.156 11.9432 212.679 12.9602C213.202 13.9716 213.463 15.1534 213.463 16.5057C213.463 17.8466 213.202 19.0256 212.679 20.0426C212.156 21.054 211.412 21.8437 210.446 22.4119C209.486 22.9744 208.344 23.2557 207.02 23.2557ZM207.037 20.4432C207.639 20.4432 208.142 20.2727 208.545 19.9318C208.949 19.5852 209.253 19.1136 209.457 18.517C209.668 17.9205 209.773 17.2415 209.773 16.4801C209.773 15.7188 209.668 15.0398 209.457 14.4432C209.253 13.8466 208.949 13.375 208.545 13.0284C208.142 12.6818 207.639 12.5085 207.037 12.5085C206.429 12.5085 205.918 12.6818 205.503 13.0284C205.094 13.375 204.784 13.8466 204.574 14.4432C204.369 15.0398 204.267 15.7188 204.267 16.4801C204.267 17.2415 204.369 17.9205 204.574 18.517C204.784 19.1136 205.094 19.5852 205.503 19.9318C205.918 20.2727 206.429 20.4432 207.037 20.4432ZM215.824 23V9.90909H219.344V12.1932H219.48C219.719 11.3807 220.119 10.767 220.682 10.3523C221.244 9.93182 221.892 9.72159 222.625 9.72159C222.807 9.72159 223.003 9.73295 223.213 9.75568C223.423 9.77841 223.608 9.80966 223.767 9.84943V13.071C223.597 13.0199 223.361 12.9744 223.06 12.9347C222.759 12.8949 222.483 12.875 222.233 12.875C221.699 12.875 221.222 12.9915 220.801 13.2244C220.386 13.4517 220.057 13.7699 219.812 14.179C219.574 14.5881 219.455 15.0597 219.455 15.5938V23H215.824ZM225.644 23V9.90909H229.104V12.2188H229.258C229.531 11.4517 229.985 10.8466 230.621 10.4034C231.258 9.96023 232.019 9.73864 232.906 9.73864C233.803 9.73864 234.567 9.96307 235.198 10.4119C235.829 10.8551 236.249 11.4574 236.46 12.2188H236.596C236.863 11.4688 237.346 10.8693 238.045 10.4205C238.749 9.96591 239.582 9.73864 240.542 9.73864C241.763 9.73864 242.755 10.1278 243.516 10.9062C244.283 11.679 244.667 12.7756 244.667 14.196V23H241.045V14.9119C241.045 14.1847 240.852 13.6392 240.465 13.2756C240.079 12.9119 239.596 12.7301 239.016 12.7301C238.357 12.7301 237.843 12.9403 237.474 13.3608C237.104 13.7756 236.92 14.3239 236.92 15.0057V23H233.4V14.8352C233.4 14.1932 233.215 13.6818 232.846 13.3011C232.482 12.9205 232.002 12.7301 231.406 12.7301C231.002 12.7301 230.638 12.8324 230.315 13.0369C229.996 13.2358 229.744 13.517 229.556 13.8807C229.369 14.2386 229.275 14.6591 229.275 15.142V23H225.644Z" fill="#C3C3C3"/>
<path d="M10.3923 5L20.7846 23H0L10.3923 5Z" fill="#C3C3C3"/>
<path d="M26.3923 23L16 5H36.7846L26.3923 23Z" fill="#C3C3C3"/>
</svg>
